HIERARCHY
ROOT RootJoint
{
    OFFSET   0.000000   0.000000   0.000000
    CHANNELS 6 Xposition Yposition Zposition Xrotation Yrotation Zrotation
    JOINT pelvis_lowerback
    {
        OFFSET   0.000000   0.093605   0.000000
        CHANNELS 3 Xrotation Yrotation Zrotation
        JOINT lowerback_torso
        {
            OFFSET   0.000000   0.100000   0.000000
            CHANNELS 3 Xrotation Yrotation Zrotation
            JOINT torso_head
            {
                OFFSET   0.000000   0.282350   0.000000
                CHANNELS 3 Xrotation Yrotation Zrotation
                End Site
                {
                    OFFSET   0.000000   0.192650   0.000000
                }
            }
            JOINT rTorso_Clavicle
            {
                OFFSET  -0.001000   0.157500   0.000000
                CHANNELS 3 Xrotation Yrotation Zrotation
                JOINT rShoulder
                {
                    OFFSET  -0.117647   0.000000   0.000000
                    CHANNELS 3 Xrotation Yrotation Zrotation
                    JOINT rElbow
                    {
                        OFFSET  -0.245000   0.000000   0.000000
                        CHANNELS 3 Xrotation Yrotation Zrotation
                        JOINT rWrist
                        {
                            OFFSET  -0.240000   0.000000   0.000000
                            CHANNELS 3 Xrotation Yrotation Zrotation
                            End Site
                            {
                                OFFSET  -0.116353  -0.002500   0.000000
                            }
                        }
                    }
                }
            }
            JOINT lTorso_Clavicle
            {
                OFFSET   0.001000   0.157500   0.000000
                CHANNELS 3 Xrotation Yrotation Zrotation
                JOINT lShoulder
                {
                    OFFSET   0.117647   0.000000   0.000000
                    CHANNELS 3 Xrotation Yrotation Zrotation
                    JOINT lElbow
                    {
                        OFFSET   0.245000   0.000000   0.000000
                        CHANNELS 3 Xrotation Yrotation Zrotation
                        JOINT lWrist
                        {
                            OFFSET   0.240000   0.000000   0.000000
                            CHANNELS 3 Xrotation Yrotation Zrotation
                            End Site
                            {
                                OFFSET   0.116353  -0.002500   0.000000
                            }
                        }
                    }
                }
            }
        }
    }
    JOINT rHip
    {
        OFFSET  -0.100000  -0.051395   0.000000
        CHANNELS 3 Xrotation Yrotation Zrotation
        JOINT rKnee
        {
            OFFSET   0.000000  -0.410000   0.000000
            CHANNELS 3 Xrotation Yrotation Zrotation
            JOINT rAnkle
            {
                OFFSET   0.000000  -0.390000   0.000000
                CHANNELS 3 Xrotation Yrotation Zrotation
                JOINT rToeJoint
                {
                    OFFSET   0.000000  -0.050000   0.130000
                    CHANNELS 3 Xrotation Yrotation Zrotation
                    End Site
                    {
                        OFFSET  -0.010000   0.002000   0.060000
                    }
                }
            }
        }
    }
    JOINT lHip
    {
        OFFSET   0.100000  -0.051395   0.000000
        CHANNELS 3 Xrotation Yrotation Zrotation
        JOINT lKnee
        {
            OFFSET   0.000000  -0.410000   0.000000
            CHANNELS 3 Xrotation Yrotation Zrotation
            JOINT lAnkle
            {
                OFFSET   0.000000  -0.390000   0.000000
                CHANNELS 3 Xrotation Yrotation Zrotation
                JOINT lToeJoint
                {
                    OFFSET   0.000000  -0.050000   0.130000
                    CHANNELS 3 Xrotation Yrotation Zrotation
                    End Site
                    {
                        OFFSET   0.010000   0.002000   0.060000
                    }
                }
            }
        }
    }
}
MOTION
Frames: 10
Frame Time:   0.008333
 -2.376719   0.925631   3.975860   0.000000   0.000000   0.000000   0.000000   0.000000   0.000000   0.000000   0.000000   0.000000   0.000000   0.000000   0.000000   0.000000   0.000000   0.000000   0.000000   0.000000   0.000000   0.000000   0.000000   0.000000   0.000000   0.000000   0.000000   0.000000   0.000000   0.000000   0.000000   0.000000   0.000000   0.000000   0.000000   0.000000   0.000000   0.000000   0.000000   0.000000   0.000000   0.000000   0.000000   0.000000   0.000000   0.000000   0.000000   0.000000   0.000000   0.000000   0.000000   0.000000   0.000000   0.000000   0.000000   0.000000   0.000000   0.000000   0.000000   0.000000   0.000000   0.000000   0.000000
 -2.377671   0.925611   3.974530   2.014988   0.134351  -0.625642  -2.226055  -0.037548   0.360357   0.209790  -0.256424   0.328754  -0.056652   0.118775  -0.048473   0.366504  -0.863323  -0.520770   0.973002   0.414038   2.448958   0.015706   0.891546  -0.010476   0.243220   0.114040  -1.937102   0.513825   0.788362   0.485658   1.499351   0.168308  -2.382796   0.015292  -0.948934   0.016645   0.296818  -0.456779   1.443117  -2.594146  -0.460725   0.876275   1.024818  -0.002339  -0.002634  -0.584726  -0.606468  -0.400653   0.087580   0.000108  -0.000692  -2.560757   0.425386   0.780122   0.087417  -0.000120   0.000449  -1.149583   0.500723  -0.577726   0.597736   0.002223   0.005619
 -2.378866   0.926670   3.973265   4.065444   0.214227  -1.180235  -4.313055  -0.076785   0.582775   0.369460  -0.501722   0.661902  -0.109896   0.229330  -0.089325   0.714233  -1.829575  -0.411435   1.924111   0.766215   5.359288   0.035021   1.716428  -0.018374   0.532433   0.378726  -3.240742   1.006341   1.701590   0.450986   3.005761   0.400370  -5.162154   0.034031  -1.813168   0.028932   0.659416  -1.018139   2.320606  -5.111247  -0.956135   1.750810   1.979407  -0.004824  -0.004791  -1.136350  -1.175796  -0.780547   0.144898   0.000103  -0.001006  -4.992812   0.832913   1.514290   0.485248  -0.000744   0.002318  -1.919450   0.982822  -1.104630   1.025148   0.003116   0.008298
 -2.380182   0.927853   3.971926   6.095428   0.322156  -1.785574  -6.235166  -0.151733   0.839127   0.527299  -0.750463   0.998873  -0.152992   0.331177  -0.134373   1.048201  -2.816885   0.046228   2.851228   1.094191   8.538921   0.052583   2.459722  -0.023935   0.807712   0.544840  -3.898488   1.471512   2.624858   0.088510   4.515084   0.617790  -8.202138   0.051370  -2.595056   0.037603   1.007735  -1.469662   2.623644  -7.480806  -1.469840   2.706043   2.857770  -0.006989  -0.005743  -1.657375  -1.703146  -1.139377   0.177369   0.000072  -0.001031  -7.298053   1.187691   2.292659   0.661531  -0.000884   0.002762  -2.818623   1.445230  -1.590607   1.465954   0.003764   0.010507
 -2.381517   0.928931   3.970496   8.078045   0.454248  -2.377298  -7.992002  -0.247249   1.077246   0.698433  -0.997797   1.323893  -0.184114   0.425900  -0.177932   1.376972  -3.781905   0.727478   3.756354   1.435735  11.898641   0.067041   3.136890  -0.027753   1.063897   0.618659  -4.116750   1.913739   3.513948  -0.484595   6.028860   0.777400 -11.417400   0.065984  -3.312692   0.043603   1.336432  -1.837385   2.540554  -9.684602  -1.990919   3.644882   3.675266  -0.008638  -0.005898  -2.147825  -2.191282  -1.478095   0.197094   0.000045  -0.000945  -9.519377   1.492462   3.034305   0.729741  -0.000814   0.002570  -3.683788   1.883483  -2.035191   1.852320   0.004046   0.011715
 -2.382828   0.929834   3.969010  10.004219   0.595299  -2.929399  -9.598793  -0.349309   1.285362   0.881374  -1.234908   1.626152  -0.203340   0.514339  -0.220263   1.702448  -4.698706   1.547522   4.637316   1.814951  15.382303   0.078219   3.760829  -0.030221   1.304398   0.641927  -4.044680   2.333614   4.350487  -1.191988   7.544146   0.857428 -14.755077   0.077577  -3.978008   0.047511   1.647222  -2.161517   2.206752 -11.721292  -2.512336   4.530525   4.440758  -0.009791  -0.005657  -2.608447  -2.643624  -1.797811   0.211704   0.000025  -0.000835 -11.666270   1.753913   3.707751   0.736695  -0.000661   0.002093  -4.488833   2.299901  -2.446893   2.201312   0.004123   0.012250
 -2.384100   0.930549   3.967513  11.873243   0.735385  -3.434529 -11.074336  -0.449632   1.464066   1.068026  -1.455953   1.903090  -0.212207   0.596964  -0.261286   2.022907  -5.555021   2.447300   5.489890   2.244148  18.951128   0.086354   4.340272  -0.031612   1.532853   0.645603  -3.783313   2.730063   5.128829  -1.980827   9.055998   0.848158 -18.178336   0.086248  -4.598439   0.049729   1.941634  -2.466162   1.712158 -13.596210  -3.028656   5.354332   5.159712  -0.010529  -0.005256  -3.040556  -3.063190  -2.099451   0.224397   0.000009  -0.000731 -13.741155   1.976806   4.305252   0.702112  -0.000479   0.001499  -5.230927   2.695948  -2.831130   2.519422   0.004074   0.012293
 -2.385162   0.930460   3.966030  13.174872   0.904950  -3.590663 -12.019349  -0.420517   1.296516   1.374381  -1.611554   2.152950  -0.285127   0.630995  -0.375830   2.394707  -6.122596   2.687309   6.540548   2.616335  22.928187   0.090624   4.896520  -0.034274   1.884243   0.660895  -2.687085   2.822083   5.881867  -2.188567  10.619526   0.238575 -21.867135   0.090668  -5.179899   0.050214   2.259076  -2.550128   0.582863 -14.888437  -3.576034   5.844566   5.789206  -0.010906  -0.005358  -3.516513  -3.898740  -2.613342   0.284769   0.000054  -0.001155 -16.176604   2.885965   4.604575   3.466258  -0.003592   0.032001  -7.266458   3.245943  -3.046753   2.488759   0.003261   0.009357
 -2.386042   0.929462   3.965146  14.260066   0.871130  -3.629242 -12.924063  -0.291166   1.124912   1.710423  -1.684353   2.342557  -0.330135   0.667752  -0.494972   2.730490  -6.610518   2.794184   7.497084   3.048287  26.613161   0.091138   5.425225  -0.034752   2.243913   0.730772  -1.499087   2.902699   6.582344  -2.296845  12.083824  -0.451618 -25.373807   0.092015  -5.736749   0.049038   2.567146  -2.703622  -0.586020 -15.986925  -4.087085   6.298701   6.397921  -0.011381  -0.006401  -3.968125  -4.679597  -3.101686   0.346551   0.000058  -0.001583 -18.314447   3.798755   4.870980   6.572272  -0.004050   0.054177  -9.127791   3.790371  -3.243183   2.445256   0.002609   0.006890
 -2.386788   0.927616   3.964728  15.249302   0.728096  -3.578638 -13.833566  -0.137355   0.945209   1.992902  -1.718393   2.485498  -0.372525   0.703204  -0.605742   3.034453  -7.064230   2.828016   8.359757   3.499065  30.001898   0.088902   5.921574  -0.033396   2.588444   0.822749  -0.419264   2.985922   7.264159  -2.380428  13.414835  -1.153051 -28.627706   0.090434  -6.252779   0.046249   2.859571  -2.856221  -1.711914 -17.011307  -4.577888   6.730367   6.968922  -0.011838  -0.007612  -4.395837  -5.405467  -3.564109   0.407269   0.000026  -0.001943 -20.196942   4.646692   5.120642   9.600536  -0.003234   0.065884 -10.853638   4.303849  -3.407592   2.436845   0.002087   0.005415
